<?xml version="1.0" encoding="utf-8"?>
<!-- Generator: Adobe Illustrator 16.0.0, SVG Export Plug-In . SVG Version: 6.00 Build 0)  -->
<!DOCTYPE svg PUBLIC "-//W3C//DTD SVG 1.1//EN" "http://www.w3.org/Graphics/SVG/1.1/DTD/svg11.dtd">
<svg version="1.1" id="Layer_1" xmlns="http://www.w3.org/2000/svg" xmlns:xlink="http://www.w3.org/1999/xlink" x="0px" y="0px"
	 width="70.871px" height="70.871px" viewBox="0 0 70.871 70.871" enable-background="new 0 0 70.871 70.871" xml:space="preserve">
<g>
	<g>
		<path d="M34.219,29.669h-7.655v6.624h7.655V29.669z M44.437,29.669h-7.648v6.624h7.648V29.669L44.437,29.669z M54.653,29.669H47
			v6.624h7.653V29.669z M24.001,38.51h-7.653v6.618h7.653V38.51z M26.563,45.128h7.655V38.51h-7.655V45.128z M36.787,45.128h7.649
			V38.51h-7.649V45.128L36.787,45.128z M47,45.128h7.653V38.51H47V45.128z M16.349,53.97h7.653v-6.619h-7.653V53.97z M26.563,53.97
			h7.655v-6.619h-7.655V53.97z M36.787,53.97h7.649v-6.619h-7.649V53.97L36.787,53.97z M47,53.97h7.653v-6.619H47V53.97z
			 M58.399,58.135c0,1.563-1.308,2.835-2.912,2.835H15.516c-1.607,0-2.916-1.271-2.916-2.835v-32.56H8.438v32.56
			c0,3.794,3.177,6.886,7.079,6.886h39.971c3.901,0,7.077-3.092,7.077-6.886v-32.56H58.4L58.399,58.135L58.399,58.135z
			 M55.487,12.372h-1.831v-1.941c0-2.455-1.992-4.454-4.443-4.454c-2.455,0-4.449,1.999-4.449,4.454v1.941h-4.562v-1.941
			c0-2.455-1.994-4.454-4.447-4.454c-2.453,0-4.447,1.999-4.447,4.454v1.941h-4.562v-1.941c0-2.455-1.996-4.454-4.448-4.454
			c-2.452,0-4.447,1.999-4.447,4.454v1.941h-2.334c-3.901,0-7.079,3.087-7.079,6.885v3.239h54.127v-3.239
			C62.564,15.461,59.389,12.372,55.487,12.372z M24.247,18.363c0,1.115-0.876,2.023-1.95,2.023c-1.074,0-1.948-0.908-1.948-2.023
			V10.43c0-1.115,0.875-2.025,1.948-2.025c1.073,0,1.95,0.911,1.95,2.025V18.363z M37.705,18.363c0,1.115-0.877,2.023-1.951,2.023
			c-1.075,0-1.948-0.908-1.948-2.023V10.43c0-1.115,0.873-2.025,1.948-2.025c1.074,0,1.951,0.911,1.951,2.025V18.363z
			 M51.158,18.363c0,1.115-0.875,2.023-1.945,2.023c-1.076,0-1.95-0.908-1.95-2.023V10.43c0-1.115,0.874-2.025,1.95-2.025
			c1.07,0,1.945,0.911,1.945,2.025V18.363z"/>
	</g>
</g>
</svg>
