<?xml version="1.0" encoding="utf-8"?>
<!-- Generator: Adobe Illustrator 16.0.0, SVG Export Plug-In . SVG Version: 6.00 Build 0)  -->
<!DOCTYPE svg PUBLIC "-//W3C//DTD SVG 1.1//EN" "http://www.w3.org/Graphics/SVG/1.1/DTD/svg11.dtd">
<svg version="1.1" id="Layer_1" xmlns="http://www.w3.org/2000/svg" xmlns:xlink="http://www.w3.org/1999/xlink" x="0px" y="0px"
	 width="70.87px" height="70.87px" viewBox="0 0 70.87 70.87" style="enable-background:new 0 0 70.87 70.87;" xml:space="preserve"
	>
<g>
	<path d="M67.723,38.932c0-1.255-0.286-2.451-0.804-3.547c-0.053-0.279-0.114-0.557-0.19-0.839l-5.597-13.722L61.093,20.7
		c-1.958-5.769-4.744-11.107-11.812-11.107H22.262c-7.242,0-9.8,5.471-11.802,11.074L4.604,34.423
		c-0.846,1.342-1.327,2.876-1.327,4.508v4.271c0,0.659,0.079,1.306,0.229,1.928c-0.146,0.375-0.229,0.78-0.229,1.207v12.698
		c0,1.864,1.526,3.375,3.409,3.375h7.074c1.882,0,3.409-1.511,3.409-3.375v-6.349h37.065v6.349c0,1.864,1.526,3.375,3.409,3.375
		h6.671c1.882,0,3.409-1.511,3.409-3.375V46.336c0-0.426-0.083-0.832-0.229-1.208c0.15-0.621,0.229-1.267,0.229-1.928L67.723,38.932
		L67.723,38.932z M14.615,22.045c2.229-6.221,4.021-8.119,7.647-8.119H49.28c3.599,0,5.602,2.118,7.638,8.093l4.084,8.188
		c-1.333-0.488-2.801-0.759-4.343-0.759H14.341c-1.389,0-2.715,0.22-3.939,0.621L14.615,22.045z M18.124,44.822H10.66
		c-1.344,0-2.434-1.078-2.434-2.407c0-1.33,1.09-2.408,2.434-2.408h7.464c1.345,0,2.435,1.078,2.435,2.408
		C20.559,43.744,19.468,44.822,18.124,44.822z M44.493,44.341H27.13c-0.851,0-1.541-0.683-1.541-1.524
		c0-0.843,0.69-1.525,1.541-1.525h17.363c0.852,0,1.541,0.683,1.541,1.525C46.034,43.658,45.345,44.341,44.493,44.341z
		 M60.151,44.822h-7.464c-1.345,0-2.434-1.078-2.434-2.407c0-1.33,1.09-2.408,2.434-2.408h7.464c1.346,0,2.435,1.078,2.435,2.408
		C62.586,43.744,61.497,44.822,60.151,44.822z"/>
</g>
</svg>
