<?xml version="1.0" encoding="utf-8"?>
<!-- Generator: Adobe Illustrator 16.0.0, SVG Export Plug-In . SVG Version: 6.00 Build 0)  -->
<!DOCTYPE svg PUBLIC "-//W3C//DTD SVG 1.1//EN" "http://www.w3.org/Graphics/SVG/1.1/DTD/svg11.dtd">
<svg version="1.1" id="Layer_1" xmlns="http://www.w3.org/2000/svg" xmlns:xlink="http://www.w3.org/1999/xlink" x="0px" y="0px"
	 width="70.87px" height="70.87px" viewBox="0 0 70.87 70.87" style="enable-background:new 0 0 70.87 70.87;" xml:space="preserve"
	>
<path style="fill:#414042;" d="M54.646,31.718L27.152,4.366C26.14,3.3,24.876,2.769,23.357,2.769s-2.782,0.533-3.795,1.597
	l-3.205,3.151c-1.039,1.035-1.562,2.296-1.562,3.78c0,1.457,0.522,2.731,1.562,3.823L36.852,35.5L16.356,55.918
	c-1.04,1.037-1.561,2.298-1.561,3.783c0,1.456,0.521,2.73,1.561,3.823l3.205,3.15c1.04,1.037,2.305,1.556,3.795,1.556
	c1.491,0,2.755-0.518,3.796-1.555l27.492-27.354c1.04-1.092,1.561-2.367,1.561-3.823C56.205,34.015,55.685,32.754,54.646,31.718z"/>
</svg>
