<?xml version="1.0" encoding="utf-8"?>
<!-- Generator: Adobe Illustrator 16.0.0, SVG Export Plug-In . SVG Version: 6.00 Build 0)  -->
<!DOCTYPE svg PUBLIC "-//W3C//DTD SVG 1.1//EN" "http://www.w3.org/Graphics/SVG/1.1/DTD/svg11.dtd">
<svg version="1.1" id="Layer_1" xmlns="http://www.w3.org/2000/svg" xmlns:xlink="http://www.w3.org/1999/xlink" x="0px" y="0px"
	 width="70.87px" height="70.87px" viewBox="0 0 70.87 70.87" style="enable-background:new 0 0 70.87 70.87;" xml:space="preserve"
	>
<g>
	<path d="M64.704,53.074h-7.288l-6.762-5.045c-0.658-0.488-1.579-0.346-2.057,0.326c-0.479,0.672-0.34,1.612,0.318,2.101
		l3.491,2.618H50.08c-0.499,0-0.887,0.467-0.797,0.969l2.147,12.748c0.069,0.396,0.401,0.686,0.797,0.686h5.161h5.23
		c0.395,0,0.734-0.29,0.796-0.693l2.079-12.747C65.584,53.533,65.203,53.074,64.704,53.074z M57.34,57.53
		c-0.623,0.099-1.205-0.339-1.303-0.977c-0.034-0.247,0.008-0.487,0.111-0.7c0.159-0.325,0.471-0.572,0.852-0.629
		c0.423-0.064,0.832,0.113,1.074,0.438c0.118,0.155,0.201,0.339,0.229,0.545C58.393,56.837,57.971,57.432,57.34,57.53z"/>
	<path d="M27.336,18.233c1.67,0,3.506-0.948,3.506-0.948c-0.866-0.517-1.31-1.542-1.524-2.575c0.907,1.535,2.48,2.547,4.261,2.547
		s3.353-1.012,4.261-2.547c-0.215,1.04-0.658,2.059-1.524,2.575c0,0,1.836,0.948,3.506,0.948c1.08,0,2.099-0.396,2.5-1.72
		c0.062-0.197-0.021-0.41-0.2-0.502c-0.603-0.332-1.926-1.287-1.926-3.254c0-2.547,0.623-10.258-6.616-10.258
		s-6.616,7.711-6.616,10.258c0,1.967-1.323,2.922-1.926,3.254c-0.18,0.1-0.263,0.312-0.201,0.502
		C25.237,17.83,26.256,18.233,27.336,18.233z"/>
	<path d="M50.177,40.984c1.06-0.807,1.281-2.342,0.492-3.424L39.189,21.799c-2.445-3.325-7.315-3.177-10.356-0.863
		c-0.007,0.007-9.512,7.23-9.512,7.23l-5.743-3.248v5.596l4.773,2.703c0.359,0.204,0.762,0.304,1.163,0.304
		c0.506,0,1.012-0.162,1.435-0.481l5.417-4.117v6.077L20.63,51.341c-0.2,0.544,0.201,1.132,0.77,1.132h4.967v12.655
		c0,1.818,1.441,3.29,3.222,3.29s3.221-1.472,3.221-3.29V52.459h1.553v12.655c0,1.817,1.44,3.289,3.221,3.289
		s3.222-1.472,3.222-3.289V52.459h4.967c0.575,0,0.97-0.581,0.77-1.133l-5.736-16.342V32.19l6.034,8.284
		c0.471,0.644,1.191,0.983,1.926,0.983C49.248,41.465,49.747,41.31,50.177,40.984z"/>
	<path d="M12.262,51.524V29.764V27.91V6.617c0-0.777-0.623-1.414-1.386-1.414c-0.762,0-1.386,0.637-1.386,1.414v44.744
		c0.347-0.07,0.707-0.105,1.061-0.105C11.133,51.256,11.715,51.348,12.262,51.524z"/>
	<path d="M20.977,67.767c-2.286-1.167-4.149-3.438-4.149-6.487c0-3.049-1.753-4.371-2.445-4.774
		c-0.839-0.333-1.815-0.566-2.868-0.658c-0.312-0.028-0.638-0.042-0.963-0.042c-0.139,0-0.284,0-0.423,0.007
		c-1.511,0.057-2.902,0.403-3.983,0.948c-1.635,1.11-1.489,3.494-1.489,3.494c0,7.562,5.562,9.246,10.516,9.246
		c2.183,0,4.247-0.325,5.66-0.623C21.379,68.771,21.476,68.021,20.977,67.767z"/>
	<path d="M9.228,54.39c0.284-0.028,0.575-0.05,0.866-0.057c0.152-0.007,0.305-0.007,0.457-0.007c0.36,0,0.713,0.014,1.06,0.042
		c0.291,0.021,0.582,0.057,0.866,0.099c0.242,0.036,0.478,0.078,0.714,0.128c0.18,0.042,0.36,0.085,0.54,0.128
		c-0.098-0.213-0.201-0.411-0.318-0.588c-0.16-0.24-0.333-0.453-0.513-0.623c-0.139-0.127-0.284-0.232-0.437-0.311
		c-0.062-0.035-0.132-0.064-0.194-0.092c-0.54-0.24-1.122-0.368-1.711-0.368c-0.36,0-0.714,0.05-1.061,0.142
		c-0.222,0.057-0.442,0.134-0.657,0.233c-0.062,0.028-0.125,0.057-0.188,0.085c-0.152,0.078-0.305,0.191-0.45,0.325
		c-0.318,0.297-0.603,0.715-0.817,1.196c0.36-0.093,0.734-0.178,1.122-0.241C8.742,54.446,8.978,54.41,9.228,54.39z"/>
</g>
</svg>
