<?xml version="1.0" encoding="utf-8"?>
<!-- Generator: Adobe Illustrator 16.0.0, SVG Export Plug-In . SVG Version: 6.00 Build 0)  -->
<!DOCTYPE svg PUBLIC "-//W3C//DTD SVG 1.1//EN" "http://www.w3.org/Graphics/SVG/1.1/DTD/svg11.dtd">
<svg version="1.1" id="Layer_1" xmlns="http://www.w3.org/2000/svg" xmlns:xlink="http://www.w3.org/1999/xlink" x="0px" y="0px"
	 width="70.87px" height="70.87px" viewBox="0 0 70.87 70.87" style="enable-background:new 0 0 70.87 70.87;" xml:space="preserve"
	>
<g>
	<path d="M7.786,60.955c1.263,0.939,3.376,1.164,5.34-1.426c0,0,8.264-11.165,14.303-19.271c-0.051,0.261-0.158,0.568-0.318,0.883
		c-0.351,0.682-0.482,1.348-0.294,1.488s0.672-0.402,1.082-1.215l0.139-0.277c0.387-0.768,0.435-1.572,0.14-1.885
		c1.197-1.602,2.285-3.058,3.166-4.23c0.137-0.185,0.237-0.378,0.305-0.578c0.197-0.164,0.397-0.361,0.59-0.609
		c6.664-8.732,19.076-24.659,19.076-24.659c2.536-3.346,1.542-5.046,0.279-5.986C50.33,2.25,48.407,1.774,45.87,5.119
		c0,0-11.988,16.244-18.6,25.014c-0.19,0.252-0.326,0.499-0.43,0.733c-0.173,0.117-0.333,0.269-0.472,0.448
		c-0.894,1.166-2,2.605-3.222,4.191c-0.386-0.194-1.152,0.072-1.788,0.656l-0.229,0.208c-0.673,0.617-1.066,1.23-0.877,1.37
		c0.188,0.141,0.798-0.17,1.363-0.693c0.258-0.237,0.527-0.426,0.765-0.547C16.205,44.504,7.683,55.473,7.683,55.473
		C5.719,58.062,6.522,60.014,7.786,60.955z M20.829,41.511c0.262-0.8,0.919-2.035,1.469-2.761l0.902-1.188
		c0.549-0.727,1.316-1.501,1.713-1.736c0.396-0.232,0.841-0.331,0.989-0.221c0.15,0.111,0.718-0.384,1.268-1.11l1.254-1.653
		c0.514-0.678,0.518-1.519,0.056-1.973c0.163-0.108,0.324-0.202,0.465-0.252c0.371-0.127,1.054,0.052,1.525,0.404
		c0.471,0.35,0.84,0.954,0.826,1.348c-0.006,0.147-0.05,0.332-0.11,0.518c-0.565-0.308-1.377-0.073-1.89,0.604l-1.255,1.654
		c-0.55,0.727-0.874,1.404-0.724,1.517c0.151,0.111,0.178,0.561,0.062,1.003c-0.116,0.442-0.655,1.39-1.205,2.115l-0.901,1.188
		c-0.551,0.726-1.565,1.693-2.269,2.165c-0.702,0.472-1.581,0.622-1.961,0.337C20.663,43.188,20.566,42.311,20.829,41.511z"/>
	<path d="M62.193,11.086c-1.264-0.939-3.188-1.415-5.725,1.93c0,0-11.986,16.244-18.598,25.014c-0.19,0.252-0.324,0.499-0.43,0.732
		c-0.172,0.119-0.332,0.27-0.472,0.451c-0.892,1.165-2.001,2.604-3.223,4.191c-0.383-0.195-1.15,0.073-1.787,0.655l-0.23,0.21
		c-0.673,0.615-1.066,1.229-0.877,1.367c0.188,0.141,0.799-0.169,1.362-0.691c0.259-0.241,0.529-0.427,0.767-0.55
		c-6.176,8.002-14.702,18.974-14.702,18.974c-1.965,2.59-1.16,4.542,0.103,5.482c1.261,0.939,3.376,1.166,5.341-1.426
		c0,0,8.264-11.165,14.304-19.271c-0.053,0.26-0.159,0.569-0.32,0.882c-0.35,0.683-0.481,1.35-0.291,1.491
		c0.187,0.138,0.671-0.404,1.081-1.217l0.14-0.278c0.387-0.766,0.436-1.568,0.139-1.881c1.197-1.605,2.285-3.061,3.168-4.234
		c0.137-0.183,0.238-0.379,0.306-0.575c0.198-0.166,0.397-0.362,0.59-0.612c6.663-8.733,19.076-24.658,19.076-24.658
		C64.451,13.728,63.455,12.026,62.193,11.086z M41.781,40.783c-0.564-0.31-1.377-0.071-1.889,0.604l-1.255,1.654
		c-0.55,0.726-0.874,1.404-0.724,1.516s0.18,0.562,0.062,1.004c-0.115,0.44-0.655,1.387-1.205,2.115l-0.9,1.188
		c-0.551,0.727-1.565,1.694-2.269,2.166c-0.703,0.471-1.581,0.622-1.961,0.337c-0.381-0.283-0.478-1.161-0.217-1.96
		c0.261-0.8,0.919-2.037,1.468-2.761l0.902-1.188c0.55-0.728,1.318-1.502,1.715-1.737c0.396-0.231,0.841-0.331,0.989-0.22
		c0.151,0.113,0.719-0.383,1.269-1.108l1.255-1.653c0.514-0.679,0.518-1.521,0.056-1.972c0.163-0.111,0.325-0.204,0.465-0.253
		c0.372-0.128,1.054,0.053,1.524,0.401c0.471,0.353,0.842,0.953,0.825,1.349C41.887,40.416,41.843,40.598,41.781,40.783z"/>
</g>
</svg>
