<?xml version="1.0" encoding="utf-8"?>
<!-- Generator: Adobe Illustrator 16.0.0, SVG Export Plug-In . SVG Version: 6.00 Build 0)  -->
<!DOCTYPE svg PUBLIC "-//W3C//DTD SVG 1.1//EN" "http://www.w3.org/Graphics/SVG/1.1/DTD/svg11.dtd">
<svg version="1.1" id="Layer_1" xmlns="http://www.w3.org/2000/svg" xmlns:xlink="http://www.w3.org/1999/xlink" x="0px" y="0px"
	 width="70.87px" height="70.87px" viewBox="0 0 70.87 70.87" style="enable-background:new 0 0 70.87 70.87;" xml:space="preserve"
	>
<g>
	<path d="M68.67,7.951l-0.688-0.688c-0.76-0.76-1.992-0.76-2.752,0l-5.166,5.164H48.787c-1.075,0-1.946,0.87-1.946,1.945v0.973
		c0,1.074,0.871,1.945,1.946,1.945h4.357l-9.579,22.988l-14.08-8.626c-0.632-0.456-1.298-0.864-1.996-1.223l-0.042-0.022
		c-1.207-0.616-2.504-1.078-3.864-1.37l-2.914-6.884c0,0,4.379-0.709,5.737-0.972c1.358-0.264,1.946-0.871,1.946-1.946v-2.837
		c0-1.074-0.871-1.945-1.946-1.945H7.92c-1.074,0-1.945,0.871-1.945,1.945v3.81c0,1.075,0.871,1.945,1.945,1.945h9.089l2.768,6.538
		c-8.508,0.255-15.328,7.226-15.328,15.793c0,6.941,4.479,12.833,10.705,14.955H3.704c-1.075,0-1.946,0.871-1.946,1.945v0.973
		c0,1.075,0.871,1.946,1.946,1.946H55.76c1.075,0,1.946-0.871,1.946-1.946v-0.973c0-1.074-0.871-1.945-1.946-1.945h-8.243
		c3.15-1.451,5.34-4.632,5.34-8.328c0-3.28-1.728-6.151-4.317-7.774l0.004-0.009l-2.068-1.267l10.323-24.771h4.395
		c0.014,0,0.026-0.003,0.04-0.004c0.511,0.011,1.026-0.175,1.417-0.565l6.021-6.018C69.429,9.943,69.429,8.711,68.67,7.951z
		 M31.313,57.637H19.475c-0.739,0-1.338-0.6-1.338-1.338c0-0.739,0.599-1.338,1.338-1.338h2.278v-4.707
		c-2.111-0.785-3.616-2.817-3.616-5.201c0-3.067,2.486-5.553,5.554-5.553c3.068,0,5.555,2.485,5.555,5.553
		c0,2.382-1.502,4.41-3.61,5.197v4.711h5.678c0.739,0,1.337,0.599,1.337,1.338C32.651,57.037,32.052,57.637,31.313,57.637z"/>
</g>
</svg>
