<?xml version="1.0" encoding="utf-8"?>
<!-- Generator: Adobe Illustrator 16.0.0, SVG Export Plug-In . SVG Version: 6.00 Build 0)  -->
<!DOCTYPE svg PUBLIC "-//W3C//DTD SVG 1.1//EN" "http://www.w3.org/Graphics/SVG/1.1/DTD/svg11.dtd">
<svg version="1.1" id="Layer_1" xmlns="http://www.w3.org/2000/svg" xmlns:xlink="http://www.w3.org/1999/xlink" x="0px" y="0px"
	 width="70.87px" height="70.87px" viewBox="0 0 70.87 70.87" style="enable-background:new 0 0 70.87 70.87;" xml:space="preserve"
	>
<g>
	<path d="M46.848,50.433c-1.135,0-2.265-0.458-3.09-1.36c-2.109-2.316-5.115-3.639-8.249-3.639c-3.187,0-6.114,1.285-8.243,3.623
		c-1.547,1.697-4.182,1.83-5.893,0.286c-1.707-1.539-1.838-4.16-0.289-5.855c3.676-4.033,8.934-6.346,14.425-6.346
		c5.485,0,10.741,2.318,14.429,6.359c1.548,1.698,1.417,4.318-0.29,5.857C48.852,50.082,47.847,50.433,46.848,50.433z"/>
	<path d="M56.102,40.062c-1.064,0-2.129-0.405-2.943-1.209c-4.72-4.668-10.986-7.239-17.649-7.239
		c-6.675,0-12.946,2.564-17.658,7.223c-1.632,1.615-4.274,1.604-5.897-0.016c-1.624-1.624-1.618-4.25,0.018-5.865
		c6.283-6.213,14.644-9.635,23.538-9.635c8.879,0,17.239,3.429,23.533,9.653c1.635,1.614,1.643,4.239,0.019,5.866
		C58.243,39.648,57.171,40.062,56.102,40.062z"/>
	<path d="M65.333,29.703c-1.037,0-2.074-0.385-2.884-1.152c-7.282-6.938-16.848-10.759-26.94-10.759
		c-10.112,0-19.683,3.814-26.944,10.747c-1.66,1.584-4.301,1.531-5.897-0.122c-1.597-1.651-1.541-4.278,0.119-5.861
		C11.611,14.135,23.23,9.5,35.509,9.5c12.254,0,23.87,4.642,32.713,13.063c1.662,1.583,1.716,4.21,0.125,5.863
		C67.526,29.274,66.43,29.703,65.333,29.703z"/>
	<path d="M35.509,51.48c2.783,0,5.039,2.242,5.039,5.01s-2.256,5.01-5.039,5.01s-5.038-2.242-5.038-5.01S32.726,51.48,35.509,51.48z
		"/>
</g>
</svg>
